<?xml version="1.0" standalone="no"?>
<!DOCTYPE svg PUBLIC "-//W3C//DTD SVG 1.1//EN" "http://www.w3.org/Graphics/SVG/1.1/DTD/svg11.dtd" >
<svg xmlns="http://www.w3.org/2000/svg">
<metadata>Generated by IcoMoon</metadata>
<defs>
<font id="icomoon" horiz-adv-x="1024">
<font-face units-per-em="1024" ascent="960" descent="-64" />
<missing-glyph horiz-adv-x="1024" />
<glyph unicode="&#x20;" horiz-adv-x="512" d="" />
<glyph unicode="&#xe900;" d="M52.096 4.224l-14.976 8.96c0 0 8.704 15.488 25.856 15.872v-21.632l-3.072 5.76-3.328 0.64-3.2-2.688-1.536-4.352 0.256-2.56z" />
<glyph unicode="&#xe901;" d="M438.784 845.824l518.528-308.992c0 0-303.744-539.52-895.616-550.016v748.928l104.704-199.040 115.2-20.992 109.952 94.336 52.352 151.936-5.12 83.84z" />
<glyph unicode="&#xe902;" d="M945.152 579.584l-567.68 327.808c-7.936 5.248-16.128 9.984-24.576 14.208l-3.712 2.176-0.128-0.256c-16.64 7.936-34.432 13.824-52.992 17.536-59.648 11.904-120.32-0.128-170.88-33.792s-84.992-85.12-96.896-144.768c-2.944-14.976-4.352-29.824-4.48-44.416v0-678.016l0.64-68.224c12.544-0.384 25.088-0.64 37.632-0.64 207.744 0 410.752 61.056 587.52 178.944 158.336 105.472 272.384 227.2 353.92 393.728l-58.368 35.712zM94.976 749.056c8.32 41.728 32.512 77.824 67.84 101.376 26.496 17.664 56.96 26.88 88.064 26.88 10.496 0 20.992-1.024 31.616-3.2 86.272-17.28 142.336-101.376 125.056-187.648-8.32-41.728-32.512-77.824-67.84-101.376-35.456-23.68-77.952-32-119.68-23.68-86.144 17.28-142.208 101.504-125.056 187.648zM611.84 206.592c-157.184-104.704-336.64-161.536-520.832-166.912v516.864c30.592-30.464 70.272-52.736 115.712-61.824 14.976-2.944 30.080-4.48 45.056-4.48 44.416 0 87.936 13.056 125.824 38.272 50.56 33.664 84.992 85.12 96.896 144.768 7.040 35.072 5.76 70.528-3.328 104.064l442.112-255.232c-74.752-124.8-176.896-232.448-301.44-315.52z" />
<glyph unicode="&#xe903;" d="M934.016 399.744l-9.6-434.816-727.424-4.736z" />
<glyph unicode="&#xe904;" d="M250.88-7.68l-0.64-31.872-53.248-0.256z" />
<glyph unicode="&#xe905;" d="M235.776 548.096c13.568-2.688 27.136-4.096 40.576-4.096 40.064 0 79.36 11.776 113.408 34.56 45.568 30.464 76.672 76.8 87.424 130.432 10.752 53.76-0.128 108.416-30.464 153.984s-76.8 76.8-130.56 87.552c-53.76 10.752-108.416-0.128-153.984-30.464-45.696-30.464-76.672-76.8-87.424-130.56-22.144-110.976 50.048-219.264 161.024-241.408zM134.912 777.472c7.552 37.632 29.312 70.144 61.184 91.392 23.936 16 51.328 24.192 79.488 24.192 9.472 0 18.944-0.896 28.416-2.816 77.696-15.488 128.384-91.392 112.768-169.216-7.552-37.632-29.312-70.144-61.184-91.392-32-21.248-70.272-28.928-107.904-21.376-77.696 15.616-128.256 91.52-112.768 169.216zM78.336-59.264l879.104 5.12v505.856l-879.104-510.976zM895.616 0.128l-599.808-3.456 599.808 341.248v-337.792z" />
<glyph unicode="&#xe906;" d="M35.497 837.991h950.259v-779.981h-950.259v779.981z" />
<glyph unicode="&#xe907;" d="M506.624 913.792c-256.128 0-463.616-207.616-463.616-463.616 0-256.128 207.616-463.616 463.616-463.616s463.616 207.488 463.616 463.616c0 256-207.488 463.616-463.616 463.616zM503.936 246.144c-111.232 0-201.344 94.848-201.344 211.968s90.112 211.968 201.344 211.968 201.344-94.976 201.344-211.968c0-117.12-90.112-211.968-201.344-211.968z" />
<glyph unicode="&#xe908;" d="M200.576 129.408c-4.352 0-7.936-3.584-7.936-7.936s3.584-7.936 7.936-7.936 7.936 3.584 7.936 7.936c0.128 4.352-3.456 7.936-7.936 7.936zM200.576 118.016c-1.92 0-3.456 1.664-3.456 3.584s1.536 3.584 3.456 3.584 3.456-1.664 3.456-3.584-1.536-3.584-3.456-3.584z" />
<glyph unicode="&#xe909;" d="M556.288 684.032c-60.288 12.032-121.728-0.128-172.8-34.176-51.2-34.176-86.016-86.144-98.048-146.432-24.832-124.416 56.192-246.016 180.608-270.848 15.232-3.072 30.464-4.48 45.568-4.48 44.928 0 88.96 13.184 127.232 38.784 51.2 34.176 86.016 86.144 98.048 146.432s-0.128 121.728-34.176 172.8c-34.048 51.072-86.144 85.888-146.432 97.92zM669.312 426.624c-8.448-42.24-32.896-78.72-68.736-102.528-35.84-23.936-78.848-32.384-121.088-23.936-87.168 17.408-144 102.528-126.592 189.824 8.448 42.24 32.896 78.72 68.736 102.528 26.752 17.92 57.6 27.136 89.216 27.136 10.624 0 21.248-1.024 32-3.2 87.168-17.408 143.872-102.528 126.464-189.824zM511.232 946.048c-268.928 0-487.68-218.752-487.68-487.68s218.752-487.68 487.68-487.68 487.68 218.752 487.68 487.68c0 268.8-218.752 487.68-487.68 487.68zM511.232 34.176c-233.984 0-424.192 190.208-424.192 424.064s190.208 424.192 424.192 424.192c233.856 0 424.192-190.208 424.192-424.192s-190.336-424.064-424.192-424.064z" />
<glyph unicode="&#xe90a;" d="M358.201 630.636l4.12-387.244 352.914 175.77z" />
<glyph unicode="&#xe90b;" d="M359.478 749.065h30.504v-27.852h-30.504v27.852z" />
<glyph unicode="&#xe90c;" d="M136.663 597.869l425.735 248.014 6.631-797.093-433.693 274.54z" />
<glyph unicode="&#xe90d;" d="M-1.402 290.173h66.844v328.519h-66.844v-328.519zM855.374 463.252c-5.57 173.61-138.596 292.312-144.166 297.352l-44.165-50.266c1.194-1.061 116.845-104.245 121.487-249.34 2.918-90.717-38.462-179.578-123.079-264.195l47.216-47.216c98.277 98.277 146.289 203.716 142.708 313.665zM1022.352 466.303c-7.56 233.69-186.607 393.639-194.3 400.271l-44.165-50.266c1.592-1.459 164.989-147.217 171.62-352.26 4.111-128.516-54.112-253.982-173.212-373.082l47.216-47.216c132.76 132.76 197.615 274.805 192.841 422.552zM104.435 281.95l495.63-283.16v899.615l-495.63-276.794v-339.66zM171.279 582.485l361.941 202.125v-670.699l-361.941 206.767v261.807z" />
<glyph unicode="&#xe90e;" d="M0.069 592.736h72.368v205.844h217.104v72.368h-289.472v-278.212zM72.299 320.017h-72.231v-294.965h289.335v72.368h-217.104v222.597zM951.701 97.42h-217.104v-72.368h289.335v294.965h-72.368v-222.597zM734.597 870.948v-72.368h217.104v-205.844h72.368v278.212h-289.472zM332.934 695.452v-511.931l445.194 255.966-445.194 255.966zM408.048 564.723l217.104-127.983-217.104-122.49v250.473z" />
<glyph unicode="&#xe90f;" d="M264.28 823.619h240.989v-757.97h-240.989v757.97z" />
<glyph unicode="&#xe910;" d="M27.33 581.284h961.262v-253.105h-961.262v253.105z" />
<glyph unicode="&#xe911;" d="M210.889 797.015c0-10.393-9.958-18.819-22.241-18.819s-22.241 8.426-22.241 18.819c0 10.393 9.958 18.819 22.241 18.819s22.241-8.426 22.241-18.819z" />
<glyph unicode="&#xe912;" d="M994.462 445.434c0-260.315-214.091-471.341-478.185-471.341s-478.185 211.026-478.185 471.341c0 260.315 214.091 471.341 478.185 471.341s478.185-211.026 478.185-471.341z" />
<glyph unicode="&#xe913;" d="M875.044 809.333c-198.973 200.684-523.18 202.052-724.035 2.908s-202.223-523.351-3.080-724.035 523.351-202.223 724.035-3.080 202.223 523.351 3.080 724.206zM824.916 132.689c-174.507-173.139-456.286-171.941-629.424 2.737s-171.941 456.286 2.737 629.424 456.286 171.941 629.424-2.737 171.941-456.286-2.737-629.424zM551.863 706.682l-72.198 0.342-1.027-217.108-216.937 1.027-0.342-72.198 217.108-1.027-1.027-216.937 72.198-0.342 1.027 216.937 216.937-0.855 0.342 72.198-216.937 1.027 0.855 216.937z" />
<glyph unicode="&#xe914;" glyph-name="alternate" d="M643.952-66.577l380.048 218.717-380.048 218.717v-99.479l130.234-73.536h-766.11v-86.078h760.612l-124.736-73.536v-104.805zM380.048 619.468l-130.234 73.536h766.11v86.078h-760.612l124.736 73.536v104.805l-380.048-218.717 380.048-218.717v99.479z" />
<glyph unicode="&#xe915;" glyph-name="back" d="M504.553 30.122c197.076 8.313 351.551 151.184 351.551 325.401 0 179.585-165.904 325.747-369.561 325.747-38.445 0-179.932-0.693-228.075-1.212l142.179-80.181v-106.504l-406.448 233.963 406.448 233.963v-112.219l-130.23-76.891c48.49 0.52 181.49 1.039 216.126 1.039 254.744 0 461.865-187.551 461.865-417.878 0-223.572-193.266-406.968-439.871-417.532-4.849-0.173-74.64-0.346-296.134-0.52h-8.659v92.304h8.659c125.727 0.173 283.665 0.346 292.151 0.52z" />
<glyph unicode="&#xe916;" glyph-name="click" d="M969.754 736.513c-35.936 154.182-190.46 250.353-344.642 214.417-154.182-35.765-250.353-190.289-214.417-344.471l105.754 24.642c-22.246 95.829 37.476 192 133.305 214.246s192-37.476 214.246-133.305-37.476-192-133.305-214.246l24.642-105.754c154.011 35.765 250.182 190.289 214.417 344.471zM763.037 674.738c0 39.187-31.829 71.016-71.016 71.016s-71.016-31.829-71.016-71.016c0-23.444 11.465-44.321 29.091-57.326l-612.107-267.979 113.112-72.898 222.118 86.588 2.567-1.711-186.011-292.791 183.102-116.364 183.102 288 2.738-1.882 15.059-231.016 113.112-72.898-23.957 675.422c8.898-3.936 18.652-6.332 29.091-6.332 39.187 0.342 71.016 32 71.016 71.187z" />
<glyph unicode="&#xe917;" d="M334.038 877.565c0-9.037-9.616-16.364-21.478-16.364s-21.478 7.327-21.478 16.364c0 9.037 9.616 16.364 21.478 16.364s21.478-7.327 21.478-16.364z" />
<glyph unicode="&#xe918;" d="M996.794 455.159c0-266.050-215.676-481.726-481.726-481.726s-481.726 215.676-481.726 481.726c0 266.050 215.676 481.726 481.726 481.726s481.726-215.676 481.726-481.726z" />
<glyph unicode="&#xe919;" d="M511.591 960.818c-282.694 0-512-229.101-512-512 0-282.694 229.101-512 512-512s511.795 229.51 511.795 512.205-229.101 511.795-511.795 511.795zM511.591 3.912c-245.875 0-445.111 199.236-445.111 445.111s199.236 445.111 445.111 445.111 445.111-199.236 445.111-445.111-199.441-445.111-445.111-445.111zM663.575 659.1l-153.416-153.416-153.416 153.416-51.139-51.139 153.416-153.416-153.416-153.416 51.139-51.139 153.416 153.416 153.416-153.416 51.139 51.139-153.416 153.416 153.416 153.416-51.139 51.139z" />
<glyph unicode="&#xe91a;" glyph-name="collapse" d="M511.292 185.043l-409.883 708.216h-102.353l513.179-892.404 510.821 894.762h-97.164l-407.996-722.366z" />
<glyph unicode="&#xe91b;" d="M100.063 239.446l501.563 101.691 198.212 237.855-234.407 174.082 94.797 146.505 137.887 36.195 101.691-74.114v-143.057l-77.561-148.228-480.88-567.059-237.855-27.577z" />
<glyph unicode="&#xe91c;" d="M782.603 930.604l-174.082-86.179c0 0-510.181-611.872-510.181-634.279s-1.724-215.448-1.724-215.448l267.156 31.025 553.27 720.458-36.195 120.651-98.244 63.773z" />
<glyph unicode="&#xe91d;" d="M902.047 633.285c42.055 48.777 93.935 167.705-9.652 271.292-36.885 36.885-78.768 55.327-124.787 54.638-83.421-1.379-146.849-67.909-149.435-70.839l-65.841-78.768-81.87 67.737-45.675-55.327 81.698-67.564-443.306-530.347 1.724-288.873 291.113 42.917 444.34 533.105 69.805-57.74 45.675 55.327-69.633 57.568 55.844 66.875zM670.914 839.943c5.515 5.515 48.605 47.054 98.072 47.571 0.345 0 0.689 0 1.034 0 25.509 0 48.95-11.031 71.529-33.61 80.664-80.664 13.789-164.775 5.86-173.91l-56.534-67.909-183.389 151.848 63.428 76.010zM318.097 44.681l-183.217-29.473v182.872l426.587 510.87 183.562-151.848-426.932-512.422z" />
<glyph unicode="&#xe91e;" d="M87.005 228.843l421.016 240.259 428.627-242.162-436.065-245.276z" />
<glyph unicode="&#xe91f;" d="M115.719 706.422l392.476 224.865 419.632-245.449-5.535-472.043-414.097-234.724-430.703 229.708z" />
<glyph unicode="&#xe920;" d="M954.984 701.578l-22.659-11.935 20.757 11.935-442.465 258.422-442.638-258.422v-512l442.638-253.578 442.465 253.578-6.573 5.016 8.476-5.016v512zM510.616 883.373l314.119-181.795-314.119-181.795-314.119 181.795c4.67 0 314.119 181.795 314.119 181.795zM129.73 229.708v436.411l347.503-199.092v-440.043l-280.735 162.595-66.768 40.13zM545.73 28.195v440.043l345.6 198.054v-436.411l-66.595-40.13-279.005-161.557z" />
<glyph unicode="&#xe921;" d="M134.647 101.521c0 0-80.616 185.246 377.353 185.246 463.116 0 396.221-195.538 396.221-195.538l-164.663-102.915-177.185-8.405-195.023-7.032-169.809 56.603-66.894 72.040z" />
<glyph unicode="&#xe922;" d="M132.074 788.476l144.080 97.769 238.419 46.312 313.889-56.603 102.915-133.789-15.437-648.362-169.809-87.477-293.307-30.874-186.961 36.020-164.663 108.060-5.146 632.925z" />
<glyph unicode="&#xe923;" d="M959.678 760.174c-3.259 111.148-188.162 200.683-447.678 200.683s-435.843-89.536-439.102-200.683v0-622.633c3.259-111.148 179.586-200.683 439.102-200.683s444.419 89.536 447.678 200.683v0 622.633zM512 899.795c213.548 0 360.887-62.263 360.887-139.106s-147.339-139.106-360.887-139.106-352.311 62.263-352.311 139.106c0 76.843 138.763 139.106 352.311 139.106zM512 4.095c-208.23 0-363.288 59.347-372.551 133.446h0.343v515.773c82.675-59.347 199.483-98.97 372.208-98.97s298.109 39.794 380.784 98.97v-515.773h0.343c-9.262-74.27-172.896-133.446-381.127-133.446z" />
<glyph unicode="&#xe924;" d="M486.491 870.901h54.48v-54.48h-54.48v54.48z" />
<glyph unicode="&#xe925;" d="M208.809 614.901l631.71-16.399-43.547-648.108-550.081 16.399z" />
<glyph unicode="&#xe926;" d="M551.903 514.87h-70.878v-447.863h70.878v447.863zM400.854 69.375l-14.030 447.499-70.696-4.555 14.030-447.499 70.696 4.555zM710.058 512.683l-70.696 3.826-11.479-447.499 70.696-3.826 11.479 447.499zM154.329 658.448l0.547-8.199h-0.182l42.636-717.529h0.364v-9.475h631.71v9.475h0.364l42.819 717.529h-0.182l0.547 8.199h-718.622zM762.716-5.876h-497.97l-35.348 593.628h568.484l-35.166-593.628zM647.926 836.282l14.212 63.772-212.817 47.191-14.212-63.772-263.835 58.67-15.305-69.056 740.487-164.532 15.305 69.056-263.835 58.67z" />
<glyph unicode="&#xe927;" d="M104.846 411.304c0-23.162-17.995-41.939-40.191-41.939s-40.191 18.777-40.191 41.939c0 23.162 17.995 41.939 40.191 41.939s40.191-18.777 40.191-41.939z" />
<glyph unicode="&#xe928;" d="M66.752 538.867l228.216 111.137 378.496 16.775 233.633-66.752 83.528-116.904-122.321-124.243-361.895-65.005-289.376 50.152-172.472 111.312z" />
<glyph unicode="&#xe929;" d="M1023.65 494.307c-10.31 117.603-235.38 211.44-511.65 211.44-282.736 0-512-98.381-512-219.828 0-2.796 0.175-5.417 0.349-8.038-0.175 1.747-0.349 3.495-0.349 5.242v-69.548c0-121.447 229.264-219.828 512-219.828s512 98.381 512 219.828v86.324c0-1.922-0.175-3.67-0.349-5.592zM512 639.694c231.012 0 418.162-67.276 418.162-150.455s-187.151-150.455-418.162-150.455-418.162 67.276-418.162 150.455 187.151 150.455 418.162 150.455z" />
<glyph unicode="&#xe92a;" glyph-name="dive" d="M575.885 150.789h-1.838v205.903h-128.843v-202.533h-1.992l-80.89 110.918-79.971 0.46 231.335-336.89 225.666 335.665-79.818 0.46-83.648-113.982zM445.817 730.504h1.838v-205.903h128.843v202.533h1.992l80.89-110.918 79.971-0.46-231.335 336.89-225.666-335.665 79.818-0.46 83.648 113.982z" />
<glyph unicode="&#xe92b;" d="M390.024 571.976h241.953v-235.954h-241.953v235.954z" />
<glyph unicode="&#xe92c;" d="M984.708 931.706h-589.485v-378.126h-355.93v-583.886h589.485v378.126h355.93z" />
<glyph unicode="&#xe92d;" d="M1023.5 887.514v0l0.2 72.386h-662.271l0.4-361.529-361.929-0.2 0.6-589.685h-0.2v-72.386h662.471l-0.4 361.529 361.529 0.2-0.4 589.685zM72.886 8.486l-0.4 517.099 289.543 0.2 0.2-155.97h-0.2v-72.386l227.955 0.2 0.4-288.744-517.499-0.4zM434.215 525.985l155.37 0.2 0.2-155.97-155.37-0.2-0.2 155.97zM661.971 370.215l-0.2 155.97h0.2v72.386l-227.955-0.2-0.4 288.744 517.299 0.4 0.4-517.099-289.343-0.2z" />
<glyph unicode="&#xe92e;" glyph-name="enter" d="M33.274 275.44l92.772-59.798 181.957 71.074 2.221-1.538-152.57-239.875 150.178-95.506 150.008 236.117 2.050-1.538 12.472-189.303 92.772-59.627-19.99 563.98-511.871-223.986zM974.324 642.087c-26.824 108.149-93.968 199.554-189.474 257.131-95.335 57.577-207.584 74.662-315.733 47.838s-199.554-93.968-257.131-189.474c-57.577-95.335-74.662-207.584-47.838-315.733l86.28 21.356c-21.015 85.084-7.688 173.414 37.587 248.418 45.276 75.175 117.204 127.968 202.288 149.153 85.084 21.015 173.414 7.688 248.418-37.587 75.175-45.276 127.968-117.204 149.153-202.288 43.396-175.806-64.24-354.175-239.875-397.571l21.356-86.28c108.149 26.824 199.554 93.968 257.131 189.474 57.577 95.335 74.662 207.414 47.838 315.563z" />
<glyph unicode="&#xe92f;" glyph-name="expand" d="M819.058 436.68l-708.215-409.883v-102.353l892.403 513.179-894.762 510.821v-97.164l722.366-407.996z" />
<glyph unicode="&#xe930;" glyph-name="forward" d="M730.204 29.603h8.659v-92.304h-8.659c-221.494 0.173-291.285 0.346-296.134 0.52-246.605 10.564-439.871 193.959-439.871 417.532 0 230.326 207.121 417.878 461.865 417.878 34.636 0 167.636-0.52 216.126-1.039l-130.23 76.891v112.219l406.448-233.963-406.448-233.963v106.504l142.179 80.181c-48.143 0.52-189.63 1.212-228.075 1.212-203.657 0-369.561-146.162-369.561-325.747 0-174.217 154.475-317.088 351.551-325.401 8.486-0.173 166.424-0.346 292.151-0.52z" />
<glyph unicode="&#xe931;" d="M165.898 411.632c-61.705 0-111.69-49.985-111.69-111.69s49.985-111.69 111.69-111.69 111.69 49.985 111.69 111.69-49.985 111.69-111.69 111.69zM424.613 161.018c-43.607-43.607-43.607-114.276 0-157.883s114.276-43.607 157.883 0 43.607 114.276 0 157.883-114.276 43.607-157.883 0zM873.959 411.632c-61.705 0-111.69-49.985-111.69-111.69s49.985-111.69 111.69-111.69 111.69 49.985 111.69 111.69-49.985 111.69-111.69 111.69z" />
<glyph unicode="&#xe932;" d="M354.979 850.12c-88.249-88.249-88.249-231.309 0-319.558s231.309-88.249 319.558 0 88.249 231.309 0 319.558-231.309 88.249-319.558 0zM160.727 409.908c-61.705 0-111.69-49.985-111.69-111.69s49.985-111.69 111.69-111.69 111.69 49.985 111.69 111.69-49.985 111.69-111.69 111.69zM419.442 159.294c-43.607-43.607-43.607-114.276 0-157.883s114.276-43.607 157.883 0 43.607 114.276 0 157.883-114.276 43.607-157.883 0zM868.788 409.908c-61.705 0-111.69-49.985-111.69-111.69s49.985-111.69 111.69-111.69 111.69 49.985 111.69 111.69-49.985 111.69-111.69 111.69z" />
<glyph unicode="&#xe933;" d="M863.273 442.484c-24.82 0-48.261-6.205-68.945-16.891l-80.493 89.456c40.505 47.227 64.98 108.415 64.98 175.292 0 148.576-120.998 269.573-269.573 269.573s-269.573-120.998-269.573-269.573c0-68.255 25.682-130.822 67.738-178.394l-77.563-86.353c-20.683 10.859-44.125 16.891-68.945 16.891-82.561 0-149.782-67.221-149.782-149.782s67.221-149.782 149.782-149.782 149.782 67.221 149.782 149.782c0 32.059-10.169 61.878-27.405 86.181l77.735 86.526c33.266-22.062 71.702-36.885 113.069-42.401v-191.838c-65.497-16.030-114.448-75.15-114.448-145.473 0-82.561 67.221-149.782 149.782-149.782s149.782 67.221 149.782 149.782c0 70.324-48.778 129.616-114.448 145.473v192.011c42.746 5.688 82.389 21.373 116.516 44.642l79.803-88.766c-17.236-24.475-27.405-54.122-27.405-86.353 0-82.561 67.221-149.782 149.782-149.782s149.782 67.221 149.782 149.782-67.393 149.782-149.955 149.782zM509.242 889.073c109.622 0 198.733-89.111 198.733-198.733s-89.111-198.733-198.733-198.733-198.733 89.111-198.733 198.733 89.111 198.733 198.733 198.733zM160.727 213.761c-43.607 0-78.942 35.334-78.942 78.942s35.506 78.942 78.942 78.942 78.942-35.334 78.942-78.769-35.334-79.114-78.942-79.114zM588.184 85.868c0-43.607-35.334-78.942-78.942-78.942s-78.942 35.334-78.942 78.942 35.334 78.942 78.942 78.942 78.942-35.334 78.942-78.942zM863.273 213.761c-43.607 0-78.942 35.334-78.942 78.942s35.334 78.942 78.942 78.942 78.942-35.334 78.942-78.942c0-43.435-35.506-78.942-78.942-78.942z" />
<glyph unicode="&#xe934;" d="M29.341 292.438l488.214 278.657 496.722-280.914-505.402-284.039z" />
<glyph unicode="&#xe935;" d="M855.938 657.557l116.498-360.605-460.435-277.442-477.797 278.831 183.862 481.27 144.103-72.225 160.944 160.944 266.33-249.663z" />
<glyph unicode="&#xe936;" d="M1022.090 280.806l-149.659 421.024-72.052-38.89-293.936 249.837-144.277-166.5-149.832 83.163-210.078-547.592-2.257-1.042 514.431-296.366 509.569 295.324-1.91 1.042zM510.785 69.686l-436.997 249.489 169.104 407.655 116.498-66.496 149.832 160.944 288.38-244.107 44.446 27.779 101.914-280.567-433.177-254.698zM563.565 588.804l-51.044 50.87-135.596-135.596 51.044-50.87 50.697 50.697v-262.511h72.225v256.955l50.697-50.697 51.044 50.87-89.587 89.587 0.521 0.694z" />
<glyph unicode="&#xe937;" d="M131.072 707.072c0-8.483-5.96-15.36-13.312-15.36s-13.312 6.877-13.312 15.36c0 8.483 5.96 15.36 13.312 15.36s13.312-6.877 13.312-15.36z" />
<glyph unicode="&#xe938;" d="M993.28 446.976c0-266.37-215.934-482.304-482.304-482.304s-482.304 215.934-482.304 482.304c0 266.37 215.934 482.304 482.304 482.304s482.304-215.934 482.304-482.304z" />
<glyph unicode="&#xe939;" d="M512.614 289.69c-22.733 0-41.37-18.637-41.37-41.37s18.637-41.37 41.37-41.37 41.37 18.637 41.37 41.37-18.637 41.37-41.37 41.37zM613.581 678.4c-13.517 12.083-29.286 21.504-47.309 28.467-18.227 6.758-37.274 10.035-57.958 10.035-20.89 0-40.346-3.482-58.573-10.445s-33.997-16.794-47.309-29.491c-13.517-12.698-23.757-27.853-31.334-45.466s-11.264-37.069-11.264-57.958h76.186c0 20.275 6.144 38.093 18.637 53.043s30.31 22.528 53.658 22.528c21.914 0 39.526-7.168 53.043-21.504s20.070-32.154 20.070-53.043c0-10.445-2.048-20.275-6.349-29.491s-9.83-18.227-16.794-27.238l-58.163-78.438c-9.011-11.878-15.36-23.347-19.456-34.406-4.096-10.854-5.939-24.166-5.939-39.526v-26.010h76.186v22.528c0 5.939 1.229 12.902 3.686 20.48 2.458 7.782 5.734 14.336 9.626 19.866l57.549 80.486c10.035 13.926 18.432 28.262 25.395 43.008s10.445 31.13 10.445 48.947c0 21.914-4.096 41.574-11.878 59.187-8.192 17.408-18.842 32.358-32.154 44.442zM512 960c-282.419 0-512-229.581-512-512 0-282.214 229.581-512 512-512 282.214 0 512 229.786 512 512 0 282.419-229.786 512-512 512zM512 8.294c-242.483 0-439.706 197.222-439.706 439.706s197.222 439.706 439.706 439.706 439.706-197.222 439.706-439.706-197.222-439.706-439.706-439.706z" />
<glyph unicode="&#xe93a;" d="M843.17 82.29c0-12.343-9.097-22.349-20.317-22.349s-20.317 10.006-20.317 22.349c0 12.343 9.097 22.349 20.317 22.349s20.317-10.006 20.317-22.349z" />
<glyph unicode="&#xe93b;" d="M1003.676 449.016c0-264.252-214.218-478.47-478.47-478.47s-478.47 214.218-478.47 478.47c0 264.252 214.218 478.47 478.47 478.47s478.47-214.218 478.47-478.47z" />
<glyph unicode="&#xe93c;" d="M1010.787 565.84c-42.463 189.559-191.388 338.485-380.948 380.948-373.43 83.707-700.334-243.197-616.627-616.627 42.463-189.559 191.388-338.485 380.948-380.948 373.43-83.707 700.334 243.197 616.627 616.627zM512.61 8.336c-242.791-0.203-440.477 197.483-440.274 440.274 0.203 241.572 197.483 438.852 439.055 439.055 242.791 0.203 440.477-197.483 440.274-440.274-0.203-241.572-197.483-438.852-439.055-439.055zM297.45 541.662h-0.203v-35.555h80.253v33.93h89.802v-338.078h89.396v338.078h82.285v-33.93h82.894v123.325h-424.426v-87.77z" />
<glyph unicode="&#xe93d;" glyph-name="hover" d="M33.342 275.422l92.715-59.811 182.003 71.122 2.057-1.542-152.526-239.929 150.127-95.457 150.127 236.159 2.057-1.542 12.339-189.201 92.887-59.811-20.051 564.005-511.734-223.991zM974.378 642.171c-26.735 108.139-94.086 199.484-189.373 257.067-95.457 57.583-207.539 74.549-315.678 47.814s-199.484-94.086-257.067-189.373c-57.583-95.457-74.549-207.539-47.814-315.678l86.374 21.422c-21.079 85.175-7.712 173.434 37.703 248.498s117.222 128.019 202.226 149.099c85.175 21.079 173.434 7.712 248.498-37.703 75.064-45.244 128.019-117.222 149.099-202.226 43.53-175.662-64.267-354.067-239.929-397.597l21.422-86.374c108.139 26.735 199.484 94.086 257.067 189.373 57.24 95.286 74.207 207.539 47.472 315.678zM796.83 592.643c-29.306 126.305-155.954 205.139-282.431 175.662-126.305-29.306-205.139-156.125-175.662-282.431l86.546 20.223c-18.337 78.491 30.677 157.325 109.339 175.662 78.491 18.337 157.325-30.848 175.662-109.339s-30.848-157.325-109.339-175.491l20.223-86.546c126.134 29.306 204.968 155.954 175.662 282.259z" />
<glyph unicode="&#xe93e;" d="M34.639 248.094l356.728 194.736 434.278-253.329 156.823 112.016 5.17-311.922-949.552 8.617z" />
<glyph unicode="&#xe93f;" d="M26.367 930.186h977.987v-944.727h-977.987v944.727z" />
<glyph unicode="&#xe940;" d="M6.032 949.488v-991.774h1024v986.259c0 0-1019.347 5.515-1024 5.515zM956.963 33.196h-878.034v197.665l295.55 168.886 436.518-248.676 145.966 82.72v-200.595zM956.963 321.508l-145.966-87.545-436.518 254.191-295.55-174.056v559.908h878.034v-552.498zM739.134 620.677c39.636 0 71.863 32.226 71.863 71.863s-32.226 71.863-71.863 71.863-71.863-32.226-71.863-71.863 32.226-71.863 71.863-71.863z" />
<glyph unicode="&#xe941;" glyph-name="left" d="M1022.706 488.718h-766.749l125.779 74.19v105.592l-383.030-220.501 383.030-220.501v100.243l-131.3 74.018h772.27z" />
<glyph unicode="&#xe942;" d="M504.137 530.479c100.827 0 182.607-81.78 182.607-182.607s-81.78-95.235-182.607-95.235-182.607-5.592-182.607 95.235 81.78 182.607 182.607 182.607z" />
<glyph unicode="&#xe943;" d="M731.478 450.796c0-119.671-97.012-216.683-216.683-216.683s-216.683 97.012-216.683 216.683c0 119.671 97.012 216.683 216.683 216.683s216.683-97.012 216.683-216.683z" />
<glyph unicode="&#xe944;" d="M316.811 703.476l-135.252 135.252-51.899-51.724 135.252-135.252 51.899 51.724zM548.696 960h-73.218v-191.345h73.218v191.345zM832.655 487.317v-73.218h191.345v73.218h-191.345zM196.937 487.317h-196.937v-73.218h196.937v73.218zM888.748 787.003l-51.724 51.724-135.252-135.252 51.724-51.724 135.252 135.252zM112.885 114.763l51.724-51.724 139.271 139.271-51.724 51.724-139.271-139.271zM714.528 202.135l139.271-139.271 51.724 51.724-139.271 139.271-51.724-51.724zM748.254 493.433c-12.756 63.956-49.802 119.175-103.973 155.522-54.345 36.172-119.525 49.103-183.481 36.347s-119.175-49.802-155.522-103.973c-36.172-54.345-49.103-119.525-36.347-183.481s49.802-119.175 103.973-155.522c40.715-27.085 87.372-41.065 135.077-41.065 16.076 0 32.328 1.573 48.404 4.893 132.106 26.212 218.255 155.173 191.869 287.279zM542.056 277.625c-44.909-8.912-90.517 0-128.612 25.513-38.094 25.338-63.956 64.131-72.868 108.866-18.523 92.614 41.764 182.957 134.378 201.48 11.358 2.272 22.717 3.32 33.9 3.32 33.376 0 66.228-9.786 94.711-28.833 38.094-25.338 63.956-64.131 72.868-108.866 18.523-92.44-41.764-182.957-134.378-201.48zM475.479-64h73.218v196.937h-73.218v-196.937z" />
<glyph unicode="&#xe945;" glyph-name="link" d="M751.127 419.394l-98.323 56.185-81.708-47.791-44.537 77.254 85.133 49.847v112.712l-137.721 232.961-98.152 56.185-240.327-140.633v-107.744l137.55-237.928 98.494-56.356 83.763 48.99 44.537-77.254-87.36-51.046v-107.744l137.55-237.928 98.494-56.356 240.327 140.976v112.712l-137.721 232.961zM610.494 49.911l-115.281 199.387v38.199l45.907 26.893 15.417-26.722 71.601 41.282-15.588 27.065 40.939 23.981 37.856-21.583 115.11-194.762v-42.824l-158.276-92.67-37.685 21.754zM333.34 531.078l-115.281 199.387v38.199l158.276 92.67 37.856-21.583 114.939-194.762v-42.824l-43.851-25.694-17.472 30.319-71.601-41.282 17.815-30.833-42.995-25.009-37.685 21.412z" />
<glyph unicode="&#xe946;" d="M289.645 501.336c0-14.265-14.582-25.828-32.567-25.828s-32.567 11.563-32.567 25.828c0 14.265 14.582 25.828 32.567 25.828s32.567-11.563 32.567-25.828z" />
<glyph unicode="&#xe947;" d="M234.168 510.545h574.53v-553.418h-574.53v553.418z" />
<glyph unicode="&#xe948;" d="M510.877 874.851c-171.37 0-311.074-139.702-311.074-311.074v-632.926h622.146v632.926c0 171.597-139.702 311.074-311.074 311.074zM279.761 569.616c0 127.574 103.765 226.623 231.116 226.623s231.116-99.273 231.116-226.623v-22.459h-462.231v22.459zM742.216 4.743h-462.455v462.455h462.455v-462.455zM552.877 317.839h-84v-178.559h84v178.559z" />
<glyph unicode="&#xe949;" glyph-name="loop" d="M640.601-64.515l383.056 220.459-383.056 220.63v-100.443l131.176-74.001h-685.242v670.476h842.001v-162.94h86.879v249.819h-1015.759v-844.233h766.626l-125.682-74.173z" />
<glyph unicode="&#xe94a;" d="M103.424 284.501l283.648 163.499 528.725-307.712-259.584-153.771z" />
<glyph unicode="&#xe94b;" d="M93.696 765.269l16.725-486.741 516.949-311.296 322.048 177.835-43.179 269.312-298.155 144.213 2.389 244.565-223.403 130.389z" />
<glyph unicode="&#xe94c;" d="M639.317 594.603v221.184l-254.635 144.213-317.44-182.613v-514.389l572.075-326.997 317.269 182.613v293.376l-317.269 182.613zM868.011 390.485l-235.349-136.875-255.829 147.285 236.203 134.656 254.976-145.067zM576.853 777.387v-188.075l-223.573-128.683v184.491l-2.048 1.195 225.109 131.243 0.512-0.171zM515.584 812.544l-191.147-109.739-129.195 74.411 189.269 110.763 131.072-75.435zM129.877 738.816l1.707 1.024 159.403-90.112v-273.749l314.368-183.808-0.171-164.181-475.307 273.408v437.419zM669.013 25.088l-0.853 177.152 221.355 129.024v-178.859l-220.501-127.317z" />
<glyph unicode="&#xe94d;" glyph-name="move" d="M7.289 303.655l97.584-62.68 191.33 74.559 2.375-1.462-160.446-252.365 157.888-100.325 157.706 248.163 2.193-1.462 12.975-199.005 97.584-62.68-21.015 592.995-538.173-235.736zM399.269 892.264c-177.807-56.833-245.421-228.609-256.203-319.066l92.832-11.147c0.183 2.010 25.219 192.060 198.092 243.046l21.746-54.64 133.218 178.721-214.356 25.219 24.67-62.132zM918.253 699.838l-85.522-37.644c0.913-1.827 76.020-178.355-47.148-309.928l-46.416 36-23.939-221.665 197.543 87.167-52.995 40.934c124.081 139.432 95.026 321.807 58.477 405.137z" />
<glyph unicode="&#xe94e;" glyph-name="none" d="M221.184 756.224c0-11.877-10.544-21.504-23.552-21.504s-23.552 9.627-23.552 21.504c0 11.877 10.544 21.504 23.552 21.504s23.552-9.627 23.552-21.504zM509.952 960c-281.6 0-512-230.4-512-512s230.4-512 512-512 512 230.4 512 512-230.4 512-512 512zM937.984 448c0-96.256-42.394-197.427-101.171-272.384l-599.245 599.245c74.957 58.778 176.128 101.171 272.384 101.171 235.52 0 428.032-192.512 428.032-428.032zM81.92 448c0 101.581 32.154 192.512 90.931 262.144l599.245-599.245c-69.632-58.778-160.563-90.931-262.144-90.931-235.52 0-428.032 192.512-428.032 428.032z" />
<glyph unicode="&#xe94f;" glyph-name="once" d="M640.579 227.407l382.991 220.593-382.991 220.593v-100.426l131.154-73.989h-772.163v-86.864h766.67l-125.661-74.161z" />
<glyph unicode="&#xe950;" d="M218.789 274.551c-71.582-71.582-71.582-187.731 0-259.485 71.582-71.582 187.731-71.582 259.485 0 71.582 71.582 71.582 187.731 0 259.485-71.754 71.582-187.903 71.582-259.485 0zM386.215 626.611c41.814 41.814 41.814 109.782 0 151.596s-109.782 41.814-151.596 0-41.814-109.782 0-151.596c41.814-41.814 109.61-41.814 151.596 0zM779.572 795.414c39.405 0 71.41 32.005 71.41 71.41s-32.005 71.41-71.41 71.41-71.41-32.005-71.41-71.41 32.005-71.41 71.41-71.41z" />
<glyph unicode="&#xe951;" d="M220.51 277.993c-71.582-71.582-71.582-187.731 0-259.485 71.582-71.582 187.731-71.582 259.485 0 71.582 71.582 71.582 187.731 0 259.485-71.754 71.582-187.903 71.582-259.485 0zM387.936 630.052c41.814 41.814 41.814 109.782 0 151.596s-109.782 41.814-151.596 0-41.814-109.782 0-151.596c41.814-41.814 109.61-41.814 151.596 0zM621.782 627.127c-59.193 0-107.201-48.008-107.201-107.201s48.008-107.201 107.201-107.201 107.201 48.008 107.201 107.201-48.008 107.201-107.201 107.201zM786.111 327.033c-39.405 0-71.41-32.005-71.41-71.41s32.005-71.41 71.41-71.41 71.41 32.005 71.41 71.41c0 39.405-32.005 71.41-71.41 71.41zM781.293 798.855c39.405 0 71.41 32.005 71.41 71.41s-32.005 71.41-71.41 71.41-71.41-32.005-71.41-71.41 32.005-71.41 71.41-71.41z" />
<glyph unicode="&#xe952;" d="M781.809 774.765c6.023 0 12.217 0.516 18.24 1.721 24.434 4.818 45.427 18.928 59.193 39.577s18.756 45.599 13.766 70.033c-4.818 24.434-18.928 45.427-39.577 59.193s-45.599 18.756-70.033 13.766c-24.434-4.818-45.427-18.928-59.193-39.577s-18.756-45.599-13.766-70.033c8.948-44.051 47.836-74.679 91.37-74.679zM755.826 885.236c4.646 6.883 11.701 11.701 19.788 13.25 2.065 0.344 4.13 0.688 6.195 0.688 6.023 0 12.045-1.721 17.207-5.334 6.883-4.646 11.701-11.701 13.25-19.788s0-16.519-4.646-23.402-11.701-11.701-19.788-13.25c-16.863-3.441-33.382 7.571-36.651 24.434-1.549 8.087 0 16.519 4.646 23.402zM876.793 284.359c-10.152 50.417-59.193 83.111-109.61 73.131-50.417-10.152-83.111-59.193-73.131-109.61 8.776-44.223 47.836-74.851 91.37-74.851 6.023 0 12.045 0.688 18.24 1.893 50.417 9.98 83.283 59.193 73.131 109.438zM791.617 235.491c-16.863-3.269-33.382 7.571-36.651 24.434-3.441 16.863 7.571 33.382 24.434 36.651 2.065 0.344 4.13 0.688 6.195 0.688 14.626 0 27.704-10.324 30.629-25.123 3.269-16.691-7.743-33.21-24.606-36.651zM464.336 316.193c-45.943 30.629-101.179 41.641-155.381 30.801s-101.006-42.158-131.635-88.101-41.641-101.179-30.801-155.381c19.616-98.425 106.341-166.566 202.873-166.566 13.422 0 27.015 1.377 40.609 3.958 54.203 10.841 101.006 42.158 131.635 88.101s41.641 101.179 30.801 155.381c-10.841 54.375-42.158 101.006-88.101 131.807zM470.186 63.418c-21.509-32.178-54.203-54.203-92.231-61.774-78.465-15.659-155.037 35.447-170.696 113.74-7.571 38.028 0 76.572 21.509 108.922s54.203 54.203 92.231 61.774c9.636 1.893 19.272 2.925 28.736 2.925 28.392 0 56.096-8.259 80.186-24.434 32.178-21.509 54.203-54.203 61.774-92.231s0-76.572-21.509-108.922zM781.293 550.211c-17.723 88.617-104.104 146.261-192.721 128.538s-146.261-104.104-128.538-192.721c15.487-77.777 84.143-131.635 160.543-131.635 10.668 0 21.337 1.032 32.178 3.097 88.617 17.723 146.261 104.104 128.538 192.721zM640.538 418.231c-55.063-11.013-108.922 24.778-119.934 80.014-11.013 55.063 24.778 108.922 80.014 119.934 6.711 1.377 13.422 1.893 19.96 1.893 47.492 0 90.166-33.554 99.802-81.906 11.185-55.235-24.606-108.922-79.842-119.934zM235.996 592.369c22.369-14.97 48.18-22.714 74.507-22.714 8.776 0 17.723 0.86 26.671 2.581 35.275 7.055 65.732 27.359 85.692 57.3s27.015 65.904 19.96 101.179-27.532 65.732-57.472 85.692-65.904 27.015-101.179 19.96c-35.275-7.055-65.732-27.359-85.692-57.3s-27.015-65.904-19.96-101.179c7.227-35.103 27.532-65.56 57.472-85.52zM250.278 744.825c10.841 16.175 27.187 27.187 46.287 30.973 4.818 1.032 9.636 1.377 14.454 1.377 14.282 0 28.048-4.13 40.265-12.217 16.175-10.841 27.187-27.187 30.973-46.287s0-38.544-10.841-54.719-27.187-27.187-46.287-30.973-38.544 0-54.719 10.841-27.187 27.187-30.973 46.287c-3.786 19.1 0 38.544 10.841 54.719z" />
<glyph unicode="&#xe953;" d="M246.817 840.642c0-8.977-7.276-16.253-16.253-16.253s-16.253 7.276-16.253 16.253c0 8.977 7.276 16.253 16.253 16.253s16.253-7.276 16.253-16.253z" />
<glyph unicode="&#xe954;" d="M985.907 444.578c0-255.118-213.325-461.931-476.474-461.931s-476.474 206.813-476.474 461.931c0 255.118 213.325 461.931 476.474 461.931s476.474-206.813 476.474-461.931z" />
<glyph unicode="&#xe955;" d="M875.044 809.333c-198.973 200.684-523.18 202.052-724.035 2.908s-202.223-523.351-3.080-724.035 523.351-202.223 724.035-3.080 202.223 523.351 3.080 724.206zM824.916 132.689c-174.507-173.139-456.286-171.941-629.424 2.737s-171.941 456.286 2.737 629.424 456.286 171.941 629.424-2.737 171.941-456.286-2.737-629.424zM581.632 283.758h74.080v343.882h-74.080v-343.882zM380.435 283.758h74.080v343.882h-74.080v-343.882z" />
<glyph unicode="&#xe956;" d="M221.46 813.714c0-12.343-9.097-22.349-20.317-22.349s-20.317 10.006-20.317 22.349c0 12.343 9.097 22.349 20.317 22.349s20.317-10.006 20.317-22.349z" />
<glyph unicode="&#xe957;" d="M977.27 446.984c0-264.256-214.221-478.476-478.476-478.476s-478.476 214.221-478.476 478.476c0 264.256 214.221 478.476 478.476 478.476s478.476-214.221 478.476-478.476z" />
<glyph unicode="&#xe958;" d="M512 960c-282.413 0-512-229.587-512-512s229.587-512 512-512 512 229.587 512 512-229.587 512-512 512zM512 8.33c-242.387 0-439.67 197.283-439.67 439.67s197.283 439.67 439.67 439.67 439.67-197.283 439.67-439.67-197.283-439.67-439.67-439.67zM467.302 218.819h89.397v272.051h-89.397v-272.051zM512 658.692c-32.508 0-58.921-26.413-58.921-58.921s26.413-58.921 58.921-58.921 58.921 26.413 58.921 58.921-26.413 58.921-58.921 58.921z" />
<glyph unicode="&#xe959;" d="M695.647 399.538c0-74.66-60.525-135.184-135.184-135.184s-135.184 60.525-135.184 135.184c0 74.66 60.525 135.184 135.184 135.184s135.184-60.525 135.184-135.184z" />
<glyph unicode="&#xe95a;" d="M33.328 649.671v-534.276h962.784v534.276h-962.784z" />
<glyph unicode="&#xe95b;" d="M879.293 716.498v83.491h-295.025v-83.491h-584.268v-651.095h1024v651.095h-144.707zM69.548 140.562v500.777h879.293v-500.777h-879.293zM144.707 488.3h144.707v83.491h-144.707v-83.491zM563.523 591.176c-102.026 0-185.007-82.981-185.007-185.007s82.981-185.007 185.007-185.007 185.007 82.981 185.007 185.007-82.981 185.007-185.007 185.007zM563.523 293.431c-62.236 0-112.739 50.673-112.739 112.909s50.503 112.569 112.739 112.569c62.066 0 112.739-50.503 112.739-112.739s-50.503-112.739-112.739-112.739z" />
<glyph unicode="&#xe95c;" d="M159.017 435.768c0-21.231-18.777-38.444-41.939-38.444s-41.939 17.212-41.939 38.444c0 21.231 18.777 38.444 41.939 38.444s41.939-17.212 41.939-38.444z" />
<glyph unicode="&#xe95d;" d="M515.495 746.987l443.85-255.301-421.657-249.534-477.226 249.534 460.625 260.893z" />
<glyph unicode="&#xe95e;" d="M1027.495 491.337l-514.446 296.366-509.554-295.492 1.573-0.874v-82.829l516.019-299.511 504.835 294.094v87.372l1.573 0.874zM516.718 702.427l369.059-212.663-362.244-214.061-372.379 214.76 365.564 211.964z" />
<glyph unicode="&#xe95f;" d="M1001.651 450.844c0-275.14-220.498-498.184-492.495-498.184s-492.495 223.044-492.495 498.184c0 275.14 220.498 498.184 492.495 498.184s492.495-223.044 492.495-498.184z" />
<glyph unicode="&#xe960;" d="M426.26 935.619c-0.61-0.61 0.61-39.619 0.61-39.619l34.946 21.333-35.556 18.286z" />
<glyph unicode="&#xe961;" d="M512 960c-282.413 0-512-229.587-512-512s229.587-512 512-512 512 229.587 512 512-229.587 512-512 512zM512 8.33c-242.387 0-439.67 197.283-439.67 439.67s197.283 439.67 439.67 439.67 439.67-197.283 439.67-439.67-197.283-439.67-439.67-439.67zM404.114 274.692l304.965 175.34-304.965 175.34v-350.679z" />
<glyph unicode="&#xe962;" d="M40.13 673.466l935.597-271.218-664.379-387.538z" />
<glyph unicode="&#xe963;" d="M34.702 900.483v-243.689l276.647-647.512 692.101 392.966-11.244 304.37z" />
<glyph unicode="&#xe964;" d="M1.357 944.103l0.194-288.86 307.084-703.539c2.52 4.459 3.49 4.459 2.714 0.194l714.008 414.292v351.285l-78.71 17.642-945.29 208.987zM858.438 687.424l-500.562-288.86-238.261 453.452 738.823-164.592zM67.659 669.589l-3.102 149.858 235.935-468.38 3.102-225.66-235.935 544.182zM959.055 404.962l-592.26-338.49v255.709l592.26 343.53v-260.75z" />
<glyph unicode="&#xe965;" d="M401.408 630.272c14.336-16.384 331.776-186.368 331.776-186.368l-319.488-190.464-12.288 376.832z" />
<glyph unicode="&#xe966;" d="M978.944 457.216c0-260.714-209.974-472.064-468.992-472.064s-468.992 211.35-468.992 472.064c0 260.714 209.974 472.064 468.992 472.064s468.992-211.35 468.992-472.064z" />
<glyph unicode="&#xe967;" d="M512 960c-282.419 0-512-229.581-512-512 0-282.214 229.581-512 512-512 282.214 0 512 229.786 512 512 0 282.419-229.786 512-512 512zM512 8.294c-242.483 0-439.706 197.222-439.706 439.706s197.222 439.706 439.706 439.706 439.706-197.222 439.706-439.706-197.222-439.706-439.706-439.706zM367.206 175.206l445.235 256-445.235 256v-512zM442.368 556.544l217.088-128-217.088-122.47v250.47z" />
<glyph unicode="&#xe968;" glyph-name="projects" d="M0-12.8h460.8v409.6h-460.8v-409.6zM71.68 320h322.56v-256h-322.56v256zM0 499.2h460.8v409.6h-460.8v-409.6zM66.56 832h322.56v-261.12h-322.56v261.12zM563.2 663.040h460.8v-71.68h-460.8v71.68zM563.2 816.64h460.8v-71.68h-460.8v71.68zM563.2 304.64h460.8v-71.68h-460.8v71.68zM563.2 151.040h460.8v-71.68h-460.8v71.68z" />
<glyph unicode="&#xe969;" glyph-name="publish" d="M783.689 28.772h-706.704v838.456h706.704v-107.779h77.765v185.544h-862.429v-993.986h862.429v173.655h-77.765v-95.89zM627.77 220.553l395.255 227.447-395.255 227.447v-89.654l169.952-95.89h-469.317v-77.765h461.911l-162.546-95.89v-95.695z" />
<glyph unicode="&#xe96a;" glyph-name="right" d="M-1.294 407.282h766.749l-125.779-74.19v-105.592l383.029 220.501-383.029 220.501v-100.243l131.3-74.018h-772.27z" />
<glyph unicode="&#xe96b;" glyph-name="rotate" d="M875.13 389.75c-0.392-97.24-38.543-188.413-107.609-256.695-142.435-141.261-373.109-140.282-514.369 2.152-68.478 69.065-105.848 160.434-105.456 257.674s38.543 188.413 107.609 256.695c61.631 61.043 143.022 98.217 229.304 104.479h37.37l-52.435-30.913v-95.674l286.044 164.739-285.848 164.739v-92.348l54.392-30.717h-50.87v-1.565c-102.913-9-199.761-53.804-273.326-126.587-83.935-83.152-130.5-194.282-130.891-312.456-0.587-118.174 45-229.696 128.348-313.631 83.544-84.326 195.261-130.695 314.413-130.695 117.587 0 228.326 45.587 311.674 128.152 83.739 83.152 130.109 194.087 130.695 312.456l-79.043 0.196z" />
<glyph unicode="&#xe96c;" glyph-name="scroll" d="M580.915 960.256h-143.288v-71.644h143.288v71.644zM580.915 860.978h-143.288v-154.376h143.288v154.376zM580.915 661.056h-143.288v-180.475h143.288v180.475zM676.27 310.511l-93.137-126.913h-2.047v229.261h-143.459v-225.509h-2.218l-90.067 123.501-89.043 0.512 257.578-375.108 251.266 373.744-88.873 0.512z" />
<glyph unicode="&#xe96d;" d="M713.907 556.064c0-163.906-132.869-296.775-296.775-296.775s-296.775 132.869-296.775 296.775c0 163.906 132.869 296.775 296.775 296.775s296.775-132.869 296.775-296.775z" />
<glyph unicode="&#xe96e;" d="M685.534 370.147c19.63 28.868 34.972 61.366 44.705 96.997 48.004 174.703-55.097 355.831-229.635 403.838s-355.831-55.097-403.838-229.635 55.097-355.831 229.635-403.838c87.1-23.919 175.858-10.228 248.936 31.013l262.463-265.762 81.656 24.084 24.909 81.326-258.834 261.968zM346.363 309.603c-134.778 37.116-214.294 176.848-177.343 311.786s176.848 214.294 311.786 177.343 214.294-176.848 177.343-311.786c-37.116-134.778-177.013-214.459-311.786-177.343z" />
<glyph unicode="&#xe96f;" d="M727.516 520.871c0-153.459-124.403-277.861-277.861-277.861s-277.861 124.403-277.861 277.861c0 153.459 124.403 277.861 277.861 277.861s277.861-124.403 277.861-277.861z" />
<glyph unicode="&#xe970;" d="M742.91 437.436c44.95 163.484-51.57 332.973-215.054 377.923-163.484 45.104-332.973-51.416-377.923-214.901s51.57-332.973 215.054-377.923c81.588-22.475 164.562-9.698 232.911 29.095l245.688-248.767 76.509 22.475 23.245 76.047-242.302 245.381c18.319 27.094 32.79 57.42 41.871 90.671zM675.33 456.063c-34.636-126.231-165.64-200.584-291.717-165.948s-200.738 165.64-166.101 291.717 165.64 200.584 291.717 165.948 200.738-165.485 166.101-291.717zM969.972 769.793l-31.25 56.65-162.561-89.747 31.25-56.65 162.561 89.747zM771.851 914.188l-54.34 35.098-66.964-103.293 54.34-35.098 66.964 103.293zM228.135-40.702l62.192-18.011 51.416 178.571-62.192 18.011-51.416-178.571zM826.962 525.028l140.239-0.616 0.308 64.809-140.239 0.616-0.308-64.809zM56.491 134.636l45.567-46.028 99.599 98.676-45.567 46.028-99.599-98.676z" />
<glyph unicode="&#xe971;" d="M110.128 677.917l811.472-467.562-409.6-218.325-415.396 218.325z" />
<glyph unicode="&#xe972;" d="M115.731 706.319l392.405 224.894 419.647-245.374-5.603-472.006-414.044-234.747-430.66 229.724z" />
<glyph unicode="&#xe973;" d="M955.025 701.682l-22.605-11.786 20.673 11.786-442.639 258.319-442.639-258.319v-512l442.639-253.682 442.639 253.682-6.569 5.023 8.501-5.023v512zM891.266 666.131v-436.263l-66.657-40.187-313.962-176.978-314.349 176.978-66.657 40.187v436.263l66.657 35.55c4.83 0 314.155 181.808 314.155 181.808l314.155-181.808 66.657-35.55z" />
<glyph unicode="&#xe974;" d="M380.619 337.872c0-43.749-37.195-79.215-83.079-79.215s-83.079 35.466-83.079 79.215c0 43.749 37.195 79.215 83.079 79.215s83.079-35.466 83.079-79.215z" />
<glyph unicode="&#xe975;" d="M115.731 706.318l392.405 224.894 419.647-245.374-5.603-472.006-414.044-234.747-430.66 229.724z" />
<glyph unicode="&#xe976;" d="M955.025 189.682v512l-22.605-11.786 20.673 11.786-442.638 258.318-442.638-258.318v-512l442.638-253.682 442.638 253.682-6.569 5.023 8.501-5.023zM510.454 883.49l314.155-181.808 66.657-35.55v-436.263l-1.739-0.966-759.306 437.422 66.077 35.357c4.83 0 314.155 181.808 314.155 181.808z" />
<glyph unicode="&#xe977;" glyph-name="shortcuts" d="M951.69 273.529c-66.939 40.983-148.124 45.667-233.994 42.935v263.658c12.685-0.39 25.175-0.781 37.665-0.781 71.818 0 139.342 8.587 196.328 43.52 37.080 22.638 61.67 59.133 69.281 102.848 8.587 48.985-5.66 102.262-38.251 142.855-60.889 75.916-172.129 88.016-248.045 27.127-71.037-56.986-87.431-177.788-90.943-244.142h-264.829c-4.098 67.134-21.467 183.448-90.748 239.068-36.69 29.469-82.747 42.935-129.585 37.861s-88.797-28.103-118.461-64.987c-32.396-40.398-46.643-93.871-38.251-142.66 7.611-43.715 32.201-80.21 69.281-102.848 56.986-34.933 124.51-43.52 196.328-43.52 11.709 0 23.614 0.195 35.714 0.585v-263.658c-85.089 2.732-165.689-2.342-232.042-42.935-37.080-22.638-61.67-59.133-69.281-102.848-8.587-48.985 5.855-102.262 38.251-142.66 29.469-36.69 71.623-59.718 118.461-64.987 6.44-0.781 13.076-0.976 19.516-0.976 40.007 0 78.453 13.466 110.069 38.836 70.062 56.205 87.040 174.666 90.943 241.41h265.219c4.489-67.524 22.248-181.496 90.553-236.336 32.591-26.151 71.428-38.836 110.264-38.836 51.717 0 102.848 22.638 137.781 65.963 32.201 40.202 46.447 93.676 38.056 142.66-7.611 43.715-32.201 80.21-69.281 102.848zM781.512 837.144c43.715 34.933 107.727 28.103 142.66-15.613 19.125-23.809 27.712-54.839 22.833-82.942-2.732-15.613-10.929-37.275-34.543-51.717-50.546-31.030-119.436-34.348-193.596-31.811 4.879 73.965 24.785 151.832 62.646 182.082zM241.317 53.977c-43.715-34.933-107.727-28.103-142.66 15.613-19.125 23.809-27.712 54.839-22.833 82.942 2.732 15.613 10.929 37.275 34.543 51.717 42.154 25.761 97.188 32.591 157.492 32.591 11.905 0 24.004-0.195 36.104-0.585-4.879-73.965-24.785-151.832-62.646-182.277zM303.182 651.159v-1.756c-73.965-2.147-142.66 1.561-192.816 32.201-23.614 14.442-31.811 36.104-34.543 51.717-4.879 28.103 3.708 59.133 22.833 82.942 16.979 21.077 41.178 34.348 68.11 37.275 3.708 0.39 7.416 0.585 11.319 0.585 23.029 0 45.081-7.806 63.426-22.443 37.665-30.249 57.571-107.141 62.646-180.521h-0.976zM642.755 312.756v-0.781h-264.633v264.633h264.633v-263.853zM924.172 74.664c-35.128-43.715-98.945-50.546-142.66-15.613-37.861 30.445-57.767 108.312-62.646 182.277 74.16 2.537 143.246-0.976 193.596-31.811 23.614-14.442 31.811-36.104 34.543-51.717 4.879-28.103-3.513-59.133-22.833-83.137z" />
<glyph unicode="&#xe978;" d="M608.458 702.923c0-51.37-41.258-93.013-92.151-93.013s-92.151 41.643-92.151 93.013c0 51.37 41.258 93.013 92.151 93.013s92.151-41.643 92.151-93.013z" />
<glyph unicode="&#xe979;" d="M812.569 756.664l-135.213 125.567-195.671 39.1-181.202-53.568-143.308-155.882 75.271-99.902 130.907-106.448c0 0 241.488-4.823 244.416-7.234 2.756-2.411 142.103 74.927 142.103 74.927l144.859 115.921-82.161 67.52z" />
<glyph unicode="&#xe97a;" d="M903.342 725.66c-7.062 9.646-175.69 234.771-391.342 234.771s-384.452-225.125-391.514-234.771l-15.158-20.669 15.158-20.669c7.062-9.646 175.69-234.771 391.342-234.771s384.28 225.125 391.342 234.771l15.158 20.669-14.985 20.669zM511.828 519.137c-145.892 0-274.215 133.663-318.827 185.853 44.612 52.363 172.935 185.853 318.827 185.853s274.387-133.49 318.827-185.681c-44.439-52.363-172.762-186.025-318.827-186.025zM510.622 842.098c-75.099 0-136.074-61.147-136.074-136.074s61.147-136.074 136.074-136.074 136.074 61.147 136.074 136.074-60.975 136.074-136.074 136.074zM510.622 639.193c-36.861 0-66.831 29.971-66.831 66.831s29.971 66.831 66.831 66.831 66.831-29.971 66.831-66.831-29.971-66.831-66.831-66.831zM588.994 175.68l-2.067 0.172v221.852h-138.83v-218.235h-2.067l-87.329 119.538-85.951 0.517 249.239-363.094 243.211 361.716-86.123 0.517-90.084-122.983z" />
<glyph unicode="&#xe97b;" d="M61.275 420.25c0 0-50.157 200.284 445.21 200.284 500.883 0 456.241-211.488 456.241-211.488l-178.049-111.346-219.416-8.963-248.028-7.756-183.565 61.188-72.392 78.080z" />
<glyph unicode="&#xe97c;" d="M1001.679 453.516c0-270.442-219.237-489.679-489.679-489.679s-489.679 219.237-489.679 489.679c0 270.442 219.237 489.679 489.679 489.679s489.679-219.237 489.679-489.679z" />
<glyph unicode="&#xe97d;" d="M1023.914 456.273v0c-4.654 278.881-231.999 503.64-511.914 503.64s-507.26-224.759-511.741-503.64h-0.172c0-0.862 0-1.724 0-2.585 0-1.896 0-3.964 0-5.86 0-282.673 229.241-511.914 511.914-511.914s511.914 229.241 511.914 511.914c0 1.896 0 3.964 0 5.86 0 1.034 0 1.896 0 2.585zM512 893.21c244.581 0 442.969-197.182 445.038-441.073-14.306-70.496-222.346-142.715-445.038-142.715s-430.732 72.219-445.038 142.715c2.068 243.892 200.456 441.073 445.038 441.073zM512 2.79c-207.868 0-382.47 142.543-431.421 335.071 91.007-61.016 250.269-101.521 431.421-101.521s340.414 40.505 431.421 101.521c-48.951-192.528-223.553-335.071-431.421-335.071z" />
<glyph unicode="&#xe97e;" d="M128.13 237.044c0-15.28-13.548-27.666-30.26-27.666s-30.26 12.386-30.26 27.666c0 15.28 13.548 27.666 30.26 27.666s30.26-12.386 30.26-27.666z" />
<glyph unicode="&#xe97f;" d="M517.706 496.762l443.007-256.259-422.084-248.478-476.38 250.899 460.99 259.372z" />
<glyph unicode="&#xe980;" d="M515.458 537.57l-510.271-293.955 518.225-300.525 505.429 296.894-513.383 297.586zM152.856 241.367l366.060 210.956 368.308-213.549-362.602-213.031-371.766 215.624zM1025.383 955.504h-1020.542v-72.105h1020.542v72.105zM1025.383 805.76h-1020.542v-72.105h1020.542v72.105z" />
<glyph unicode="&#xe981;" d="M104.357 477.179l433.389-224.847 369.024 231.713 12.015-49.775-164.774-405.069-104.7 68.656-127.013-114.998-269.474 221.415-32.611-34.328z" />
<glyph unicode="&#xe982;" d="M296.936 797.629l-24.201 125.125-105.73-62.477 9.612-134.737 120.319 72.089zM816.145 792.823l-4.806 115.513-86.506-14.418-115.513-81.872 100.924-81.7 105.901 62.477zM522.813 239.973l-403.867 226.049 100.924-312.555 57.671 33.641 230.855-216.437 139.371 139.543 125.125-62.648 159.281 417.255-409.36-224.847zM902.651 475.634l-384.644 221.071 4.806 4.806-399.061-225.877 413.479-216.437 365.42 216.437z" />
<glyph unicode="&#xe983;" d="M515.948 736.869l-441.628-256.086 1.545-0.858 129.588-364.905 62.477 33.641 254.884-216.437 124.953 144.177 129.759-72.089 182.281 474.583 1.888 1.201-445.747 256.772zM489.172 38.125l-218.84 185.027-38.447-24.030-87.708 241.496 344.995-198.758v-203.736zM202.191 479.238l316.846 183.654 319.764-184.169-313.757-185.37-322.854 185.885zM751.265 93.393l-101.096 57.671-98.521-105.901v192.579l340.017 200.818-140.401-345.167zM335.212 773.6l-4.806 144.177-62.477 38.447-124.953-76.723v-72.089l-62.477-38.447v-72.089l62.477-33.641 192.236 110.364zM210.258 845.688l62.477 38.447v-76.894l-62.477-38.447v76.894zM840.174 768.794v148.983h-124.953l-129.759-72.089v-72.089l124.953-76.894 129.759 72.089zM652.573 807.241l86.506 52.865h43.253v-48.059l-72.089-38.447-57.671 33.641z" />
<glyph unicode="&#xe984;" d="M15.36 857.6h35.84v-477.867h-35.84v477.867z" />
<glyph unicode="&#xe985;" d="M29.355 923.648h978.091v-944.811h-978.091v944.811z" />
<glyph unicode="&#xe986;" d="M880.299 769.024l-727.893 4.267-0.512-73.387 727.893-4.267 0.512 73.387zM152.064 528.555l727.893-4.267 0.512 73.387-727.893 4.267-0.512-73.387zM152.064 362.837l363.349-2.219 0.512 73.387-363.349 2.219-0.512-73.387zM3.413 948.565v-991.915h1024v986.283c0 0-1019.392 5.632-1024 5.632zM954.539 32.256h-878.080v840.704h878.080v-840.704z" />
<glyph unicode="&#xe987;" glyph-name="texture" d="M768.171 869.244l-252.747-148.977-259.254 148.977-252.747-148.977v-97.263l252.747 148.977 259.254-148.977 259.254 148.977 252.747-148.977v103.77l-259.254 142.47zM515.425 422.143l-259.254 149.148-252.747-149.148v-97.263l252.747 148.977 259.254-148.977 259.254 148.977 252.747-148.977v103.77l-259.254 142.641-252.747-149.148zM515.425 124.019l-259.254 148.977-252.747-148.977v-97.263l252.747 148.977 259.254-148.977 259.254 148.977 252.747-148.977v103.599l-259.254 142.641-252.747-148.977z" />
<glyph unicode="&#xe988;" d="M160.668 399.558c-61.716 0-111.709-49.993-111.709-111.709s49.993-111.709 111.709-111.709 111.709 49.993 111.709 111.709-49.993 111.709-111.709 111.709zM419.426 148.902c-43.615-43.615-43.615-114.295 0-157.91s114.295-43.615 157.91 0 43.615 114.295 0 157.91-114.295 43.615-157.91 0zM868.848 399.558c-61.716 0-111.709-49.993-111.709-111.709s49.993-111.709 111.709-111.709 111.709 49.993 111.709 111.709-49.993 111.709-111.709 111.709z" />
<glyph unicode="&#xe989;" d="M354.952 850.187c-88.264-88.264-88.264-231.348 0-319.612s231.348-88.264 319.612 0 88.264 231.348 0 319.612-231.348 88.264-319.612 0zM160.668 409.902c-61.716 0-111.709-49.993-111.709-111.709s49.993-111.709 111.709-111.709 111.709 49.993 111.709 111.709-49.993 111.709-111.709 111.709zM419.426 159.246c-43.615-43.615-43.615-114.295 0-157.91s114.295-43.615 157.91 0 43.615 114.295 0 157.91-114.295 43.615-157.91 0zM868.848 409.902c-61.716 0-111.709-49.993-111.709-111.709s49.993-111.709 111.709-111.709 111.709 49.993 111.709 111.709-49.993 111.709-111.709 111.709z" />
<glyph unicode="&#xe98a;" d="M740.935 379.044c-17.239-24.479-27.41-54.131-27.41-86.368 0-82.575 67.232-149.807 149.807-149.807s149.807 67.232 149.807 149.807-67.232 149.807-149.807 149.807c-24.824 0-48.269-6.206-68.956-16.894l-53.441-46.545zM473.902 231.305c-65.508-16.032-114.467-75.162-114.467-145.498 0-82.575 67.232-149.807 149.807-149.807s149.807 67.232 149.807 149.807c0 70.335-48.787 129.638-114.467 145.498h-70.68zM229.624 425.589c-20.687 10.861-44.132 16.894-68.956 16.894-82.575 0-149.807-67.232-149.807-149.807s67.232-149.807 149.807-149.807 149.807 67.232 149.807 149.807c0 32.065-10.171 61.888-27.41 86.195l-53.441 46.718zM713.869 515.060c40.512 47.235 64.991 108.434 64.991 175.321 0 148.601-121.018 269.619-269.619 269.619s-269.619-121.018-269.619-269.619c0-68.267 25.686-130.844 67.749-178.424l53.441-46.545c33.271-22.066 71.714-36.892 113.088-42.408h70.853c42.753 5.689 82.403 21.376 116.536 44.649l52.579 47.407zM509.242 889.147c109.64 0 198.766-89.126 198.766-198.766s-89.126-198.766-198.766-198.766-198.766 89.126-198.766 198.766 89.126 198.766 198.766 198.766zM160.668 213.721c-43.615 0-78.955 35.34-78.955 78.955s35.512 78.955 78.955 78.955 78.955-35.34 78.955-78.782-35.34-79.127-78.955-79.127zM588.197 85.807c0-43.615-35.34-78.955-78.955-78.955s-78.955 35.34-78.955 78.955 35.34 78.955 78.955 78.955 78.955-35.34 78.955-78.955zM863.332 213.721c-43.615 0-78.955 35.34-78.955 78.955s35.34 78.955 78.955 78.955 78.955-35.34 78.955-78.955c0-43.442-35.512-78.955-78.955-78.955z" />
<glyph unicode="&#xe98b;" d="M312.881 475.248c0-10.418-14.546-18.864-32.488-18.864s-32.488 8.446-32.488 18.864c0 10.418 14.546 18.864 32.488 18.864s32.488-8.446 32.488-18.864z" />
<glyph unicode="&#xe98c;" d="M234.072 498.723h547.054v-521.064h-547.054v521.064z" />
<glyph unicode="&#xe98d;" d="M303.449 503.963v58.897c0 194.298 13.834 253.196 111.088 297.631 104.171 47.369 227.205 1.048 274.575-103.123l74.408 33.745c-31.859 70.425-89.289 123.873-161.601 150.911s-150.702 24.523-220.918-7.546c-151.331-68.749-159.086-186.124-159.086-371.829v-626.073h577.865v567.385h-496.331zM725.791 2.392h-429.888v429.888h429.888v-429.888zM550.147 293.525h-78.18v-166.003h78.18v166.003z" />
<glyph unicode="&#xe98e;" d="M637.76 441.97c0-64.222-55.148-116.285-123.176-116.285s-123.176 52.063-123.176 116.285c0 64.222 55.148 116.285 123.176 116.285s123.176-52.063 123.176-116.285z" />
<glyph unicode="&#xe98f;" d="M893.933 503.3l-171.93 159.699-248.764 49.787-230.331-68.221-182.439-198.288 95.785-127.139 166.417-135.408c0 0 307.166-6.202 310.783-9.131 3.618-3.101 180.716 95.268 180.716 95.268l184.334 147.467-104.571 85.965z" />
<glyph unicode="&#xe990;" d="M1005.911 461.437c-5.513 7.58-89.927 120.248-218.444 204.662l113.184 113.184-56.334 56.334-128.345-128.517c-61.847 30.32-130.929 50.993-204.318 50.993-272.366 0-485.47-284.598-494.428-296.829l-17.572-23.602 17.572-23.774c5.341-7.408 85.448-114.218 207.935-197.599l-99.575-99.575 56.506-56.506 113.701 113.701c64.775-33.594 137.992-56.851 215.86-56.851 272.366 0 485.47 284.598 494.428 296.829l17.572 23.774-17.744 23.774zM100.608 437.836c54.783 64.948 220.511 240.495 411.047 240.495 50.132 0 98.713-12.404 143.849-31.526l-61.502-61.502c-24.808 14.299-53.405 22.396-83.898 22.396-93.201 0-169.001-75.801-169.001-169.001 0-30.493 8.269-59.262 22.396-83.898l-80.624-80.452c-85.448 55.472-151.429 126.966-182.266 163.489zM599.171 438.697c0-49.098-39.968-89.066-89.066-89.066-11.542 0-22.396 2.24-32.56 6.202l115.424 115.424c3.962-9.992 6.202-21.017 6.202-32.56zM420.867 438.697c0 49.098 39.968 89.066 89.066 89.066 8.097 0 15.849-1.206 23.257-3.273l-109.050-109.050c-2.067 7.58-3.273 15.332-3.273 23.257zM511.655 197.168c-54.611 0-107.327 14.643-155.908 36.867l62.88 62.88c26.358-17.055 57.884-27.047 91.478-27.047 93.201 0 169.001 75.801 169.001 169.001 0 33.766-9.992 65.12-27.047 91.478l77.696 77.696c90.789-56.506 160.904-132.307 193.12-170.207-55.128-65.12-220.856-240.668-411.219-240.668z" />
<glyph unicode="&#xe991;" d="M196.453 787.976c0-7.87-5.468-14.25-12.215-14.25s-12.215 6.381-12.215 14.25c0 7.87 5.468 14.25 12.215 14.25s12.215-6.381 12.215-14.25z" />
<glyph unicode="&#xe992;" d="M976.158 457.161c0-264.781-214.646-479.427-479.427-479.427s-479.427 214.646-479.427 479.427c0 264.781 214.646 479.427 479.427 479.427s479.427-214.646 479.427-479.427z" />
<glyph unicode="&#xe993;" d="M510.982 961.018c-281.549 0-512-230.451-512-512s230.451-512 512-512 512 230.451 512 512-230.451 512-512 512zM510.982 4.199c-244.498 0-444.819 200.321-444.819 444.819s200.321 444.819 444.819 444.819 444.819-200.321 444.819-444.819-200.321-444.819-444.819-444.819zM471.691 385.298l-99.957 99.753-50.284-50.284 150.241-153.702 269.742 269.945-50.284 50.080-219.458-215.793z" />
<glyph unicode="&#xe994;" d="M409.326 624.257l251.551-148.877-217.326-152.299-30.802 1.711z" />
<glyph unicode="&#xe995;" d="M28.578 928.513h977.968v-944.77h-977.968v944.77z" />
<glyph unicode="&#xe996;" d="M5.647 952.128v-991.829h1024v986.182c0 0-1019.38 5.647-1024 5.647zM956.578 35.765h-878.032v840.727h878.032v-840.727zM364.492 682.952v-439.957l382.46 220.064-382.46 219.893zM427.807 573.433l192.171-110.374-192.171-110.545v220.92z" />
<glyph unicode="&#xe997;" d="M633.497 445.433c0-58.123-57.844-105.241-129.198-105.241s-129.198 47.118-129.198 105.241c0 58.123 57.844 105.241 129.198 105.241s129.198-47.118 129.198-105.241z" />
<glyph unicode="&#xe998;" d="M894.118 514.053l-171.979 159.829-248.813 49.797-230.503-68.107-182.417-198.503 95.829-127.144 166.503-135.358c0 0 307.337-6.16 310.93-9.241s180.706 95.144 180.706 95.144l184.299 147.508-104.556 86.075z" />
<glyph unicode="&#xe999;" d="M1006.203 472.299c-8.898 12.15-222.118 296.898-494.545 296.898s-485.647-284.749-494.717-296.898l-17.455-23.786 17.455-23.786c8.898-12.15 222.118-296.898 494.545-296.898s485.647 284.749 494.545 296.898l17.455 23.786-17.283 23.786zM511.658 207.914c-189.947 0-356.278 175.914-411.209 240.77 54.759 65.027 220.749 240.77 411.209 240.77 189.947 0 356.278-175.743 411.209-240.77-54.93-65.027-220.749-240.77-411.209-240.77zM510.118 618.61c-93.262 0-169.070-75.807-169.070-169.070s75.807-169.070 169.070-169.070 169.070 75.807 169.070 169.070c-0.171 93.262-75.979 169.070-169.070 169.070zM510.118 360.556c-49.112 0-89.155 40.043-89.155 89.155s40.043 89.155 89.155 89.155 89.155-40.043 89.155-89.155c-0.171-49.283-40.043-89.155-89.155-89.155z" />
<glyph unicode="&#xe99a;" d="M112.949 244.137c0-11.978-10.875-21.688-24.29-21.688s-24.29 9.709-24.29 21.688c0 11.978 10.875 21.688 24.29 21.688s24.29-9.709 24.29-21.688z" />
<glyph unicode="&#xe99b;" d="M517.726 496.754l443.12-256.26-422.3-248.453-476.259 250.882 460.991 259.383z" />
<glyph unicode="&#xe99c;" d="M515.47 537.526l-510.265-293.91 518.246-300.503 505.407 296.859-513.388 297.553zM152.854 241.361l366.086 210.977 368.342-213.579-362.616-212.885-371.812 215.488zM443.12 744.686l221.734 127.523 216.355-127.523 144.179 83.28v83.107l-144.179-83.107-221.907 127.523-216.182-127.523-221.907 127.523-216.355-127.523v-83.28l216.355 127.523 221.907-127.523zM443.12 578.299l221.734 127.523 216.355-127.523 144.179 83.107v83.28l-144.179-83.28-221.907 127.696-216.182-127.696-221.907 127.696-216.355-127.696v-83.107l216.355 127.523 221.907-127.523z" />
<glyph unicode="&#xe99d;" d="M755.148 236.114c0-23.020-27.993-41.682-62.524-41.682s-62.524 18.662-62.524 41.682c0 23.020 27.993 41.682 62.524 41.682s62.524-18.662 62.524-41.682z" />
<glyph unicode="&#xe99e;" d="M669.699 458.073c0-175.148-141.986-317.134-317.134-317.134s-317.134 141.986-317.134 317.134c0 175.148 141.986 317.134 317.134 317.134s317.134-141.986 317.134-317.134z" />
<glyph unicode="&#xe99f;" d="M681.683 342.404c11.984 35.43 18.583 73.118 18.583 112.543 0 193.476-157.351 350.828-350.828 350.828s-350.828-157.351-350.828-350.828 157.351-350.828 350.828-350.828c96.564 0 184.098 39.251 247.49 102.469l345.617-199.381 77.286 47.935 2.779 90.659-340.928 196.602zM349.438 184.185c-149.362 0-270.936 121.574-270.936 270.936s121.574 270.936 270.936 270.936 270.936-121.574 270.936-270.936-121.574-270.936-270.936-270.936zM386.431 596.668h-80.065v-98.475h-98.475v-80.065h98.475v-98.475h80.065v98.475h98.475v80.065h-98.475v98.475z" />
<glyph unicode="&#xe9a0;" d="M744.219 235.563c0-32.775-8.086-59.345-18.061-59.345s-18.061 26.569-18.061 59.345c0 32.775 8.086 59.345 18.061 59.345s18.061-26.569 18.061-59.345z" />
<glyph unicode="&#xe9a1;" d="M669.565 452.3c0-175.086-141.936-317.022-317.022-317.022s-317.022 141.936-317.022 317.022c0 175.086 141.936 317.022 317.022 317.022s317.022-141.936 317.022-317.022z" />
<glyph unicode="&#xe9a2;" d="M681.606 342.899c12.041 35.263 18.578 73.106 18.578 112.497 0 193.516-157.393 350.737-350.737 350.737s-350.909-157.393-350.909-350.737 157.393-350.737 350.737-350.737c96.5 0 184.055 39.219 247.528 102.348l345.748-199.364 77.406 47.82 2.58 90.823-340.932 196.612zM349.447 184.646c-149.308 0-270.75 121.442-270.75 270.75s121.442 270.75 270.75 270.75 270.922-121.442 270.922-270.75-121.614-270.75-270.922-270.75zM207.879 418.414h276.943v79.987h-276.943v-79.987z" />
<glyph unicode="&#xe9a3;" d="M1023.327 597.44h-481.574v249.067h-304.4v-249.067h-238.027v-304.4h238.027v-243.547h304.4v243.547h481.574v304.4zM303.727 780.134h171.519v-182.694h-171.519v182.694zM475.38 531.067v-171.519h-171.654v171.519h171.654zM65.834 359.413v171.654h171.519v-171.519h-171.519zM475.38 115.866h-171.654v177.174h171.519v-177.174zM541.753 531.067h171.519v-171.519h-171.519v171.519zM956.819 359.413h-177.039v171.654h177.174v-171.654z" />
<glyph unicode="&#xe9a6;" d="M27.878 733.578h413.408v-562.996h-413.408v562.996z" />
<glyph unicode="&#xe9a7;" d="M574.555 729.498h429.726v-565.716h-429.726v565.716z" />
<glyph unicode="&#xe9a8;" d="M543.006 759.824v-260.284h-63.507v260.284h-480.178v-623.375h480.314v293.601h63.507v-293.601h480.178v623.375h-480.314zM410.144 205.939h-341.333v484.53h341.469v-190.929h-162.235v-69.491h162.099v-224.11zM953.829 205.939h-341.333v224.11h115.727l-45.148-60.107 55.484-41.613 102.944 137.213-109.199 136.669-54.26-43.381 47.46-59.291h-113.007v190.929h341.469v-484.53z" />
</font>
</defs>
</svg>
